<svg width="28" height="28" viewBox="0 0 28 28" fill="none" xmlns="http://www.w3.org/2000/svg">
<path d="M21.0833 26.75L21.0692 26.7486C17.9383 26.7344 15.4025 24.1986 15.4025 21.0677C15.4025 17.9369 17.9383 15.4011 21.0692 15.4011C24.1858 15.4011 26.7358 17.9369 26.7217 21.0677V21.0536C26.7217 24.1702 24.1717 26.7061 21.055 26.7202" stroke="#323232" stroke-width="1.8" stroke-linecap="round" stroke-linejoin="round"/>
<path d="M22.6133 21.0125H22.5991C22.5566 21.0125 22.5283 21.0266 22.5283 21.0691C22.5283 21.0975 22.5424 21.1258 22.5849 21.1258C22.6133 21.1116 22.6416 21.0975 22.6416 21.055C22.6402 21.0408 22.6402 21.0408 22.6274 21.0408V21.0266C22.6274 20.9841 22.5991 20.9558 22.5566 20.9558C22.5424 20.9558 22.5424 20.9558 22.5424 20.9558" stroke="#323232" stroke-width="1.8" stroke-linecap="round" stroke-linejoin="round"/>
<path d="M19.5391 21.0125C19.4966 20.9983 19.4682 21.0266 19.4682 21.0691C19.4541 21.0691 19.4541 21.0691 19.4541 21.0691H19.4399C19.4257 21.0975 19.4541 21.1258 19.4966 21.1258C19.5249 21.1258 19.5532 21.0975 19.5532 21.055C19.5532 21.0125 19.5249 20.9842 19.4824 20.9842C19.4682 20.9827 19.4682 20.9842 19.4682 20.9842" stroke="#323232" stroke-width="1.8" stroke-linecap="round" stroke-linejoin="round"/>
<path d="M21.0691 9.74999H21.0549L14.3683 2.07165C13.4899 1.05165 11.9599 0.952486 10.9541 1.81665C10.8549 1.88749 10.7699 1.97249 10.6991 2.05749C8.44661 4.64999 5.92494 7.56832 4.02661 9.72165" stroke="#323232" stroke-width="1.8" stroke-linecap="round" stroke-linejoin="round"/>
<path d="M23.0666 15.7708L23.8175 12.9942V12.98C24.1858 11.6058 23.3783 10.1892 22.0041 9.80666C21.7775 9.73582 21.5508 9.70749 21.3241 9.70749H3.79996H3.78579C2.35496 9.70749 1.20746 10.855 1.20746 12.2717C1.20746 12.4983 1.23579 12.725 1.29246 12.9375L3.74329 21.9475L3.72913 21.9333C4.02663 23.0525 5.04663 23.8175 6.20829 23.8175H16.0966" stroke="#323232" stroke-width="1.8" stroke-linecap="round" stroke-linejoin="round"/>
</svg>
