<svg id="Capa_1" enable-background="new 0 0 510 510" height="512" viewBox="0 0 510 510" width="512" xmlns="http://www.w3.org/2000/svg" xmlns:xlink="http://www.w3.org/1999/xlink"><linearGradient id="SVGID_1_" gradientTransform="matrix(.707 .707 .707 -.707 -735.278 1751.622)" gradientUnits="userSpaceOnUse" x1="-383.315" x2="-309.081" y1="1950.826" y2="2004.232"><stop offset="0" stop-color="#f8f6fb"/><stop offset="1" stop-color="#efdcfb"/></linearGradient><linearGradient id="lg1"><stop offset="0" stop-color="#efdcfb" stop-opacity="0"/><stop offset=".4856" stop-color="#baaad6" stop-opacity=".486"/><stop offset="1" stop-color="#8679b2"/></linearGradient><linearGradient id="SVGID_2_" gradientTransform="matrix(-.707 .707 .707 .707 -3721.369 2336.627)" gradientUnits="userSpaceOnUse" x1="-4522.166" x2="-4678.913" xlink:href="#lg1" y1="1295.924" y2="1376.927"/><linearGradient id="SVGID_3_" gradientUnits="userSpaceOnUse" x1="401.716" x2="316.118" xlink:href="#lg1" y1="221.414" y2="135.816"/><radialGradient id="SVGID_4_" cx="-459.328" cy="1557.123" gradientTransform="matrix(.707 -.707 .707 .707 -735.278 -1265.118)" gradientUnits="userSpaceOnUse" r="338.743"><stop offset="0" stop-color="#ffd945"/><stop offset=".3111" stop-color="#ffd643"/><stop offset=".5584" stop-color="#ffcc3d"/><stop offset=".7831" stop-color="#fb3"/><stop offset=".9944" stop-color="#ffa425"/><stop offset="1" stop-color="#ffa325"/></radialGradient><linearGradient id="SVGID_5_" gradientUnits="userSpaceOnUse" x1="226.073" x2="852.809" y1="322.447" y2="501.192"><stop offset="0" stop-color="#f82814" stop-opacity="0"/><stop offset="1" stop-color="#c0272d"/></linearGradient><linearGradient id="lg2"><stop offset="0" stop-color="#f82814" stop-opacity="0"/><stop offset=".2454" stop-color="#f12817" stop-opacity=".245"/><stop offset=".6052" stop-color="#dd2820" stop-opacity=".605"/><stop offset="1" stop-color="#c0272d"/></linearGradient><linearGradient id="SVGID_6_" gradientTransform="matrix(-.892 -.452 .452 -.892 -606.098 -2433.819)" gradientUnits="userSpaceOnUse" x1="-1890.233" x2="-1859.922" xlink:href="#lg2" y1="-2211.913" y2="-2169.891"/><linearGradient id="SVGID_7_" gradientTransform="matrix(-.892 -.452 .452 -.892 -606.098 -2433.819)" gradientUnits="userSpaceOnUse" x1="-1869.445" x2="-1845.516" xlink:href="#lg2" y1="-2238.451" y2="-2205.277"/><linearGradient id="SVGID_8_" gradientTransform="matrix(-.892 -.452 .452 -.892 -606.098 -2433.819)" gradientUnits="userSpaceOnUse" x1="-1904.401" x2="-1889.974" xlink:href="#lg2" y1="-2239.38" y2="-2219.38"/><linearGradient id="SVGID_9_" gradientTransform="matrix(-.258 -.966 .966 -.258 568.278 -2194.437)" gradientUnits="userSpaceOnUse" x1="-2407.444" x2="-2385.046" xlink:href="#lg2" y1="-1106.863" y2="-1075.812"/><linearGradient id="SVGID_10_" gradientTransform="matrix(-.258 -.966 .966 -.258 568.278 -2194.437)" gradientUnits="userSpaceOnUse" x1="-2392.084" x2="-2374.402" xlink:href="#lg2" y1="-1126.473" y2="-1101.96"/><linearGradient id="SVGID_11_" gradientTransform="matrix(-.258 -.966 .966 -.258 568.278 -2194.437)" gradientUnits="userSpaceOnUse" x1="-2417.913" x2="-2407.253" xlink:href="#lg2" y1="-1127.159" y2="-1112.381"/><linearGradient id="SVGID_12_" gradientTransform="matrix(-.258 -.966 .966 -.258 568.278 -2194.437)" gradientUnits="userSpaceOnUse" x1="-2232.538" x2="-2210.14" xlink:href="#lg2" y1="-880.182" y2="-849.13"/><linearGradient id="SVGID_13_" gradientTransform="matrix(-.258 -.966 .966 -.258 568.278 -2194.437)" gradientUnits="userSpaceOnUse" x1="-2217.177" x2="-2199.495" xlink:href="#lg2" y1="-899.792" y2="-875.278"/><linearGradient id="SVGID_14_" gradientTransform="matrix(-.258 -.966 .966 -.258 568.278 -2194.437)" gradientUnits="userSpaceOnUse" x1="-2243.006" x2="-2232.346" xlink:href="#lg2" y1="-900.478" y2="-885.699"/><linearGradient id="lg3"><stop offset="0" stop-color="#ffd945"/><stop offset=".3043" stop-color="#ffcd3e"/><stop offset=".8558" stop-color="#ffad2b"/><stop offset="1" stop-color="#ffa325"/></linearGradient><linearGradient id="SVGID_15_" gradientTransform="matrix(0 -1 1 0 -2073.033 -1474.967)" gradientUnits="userSpaceOnUse" x1="-1789.099" x2="-1775.042" xlink:href="#lg3" y1="2426.187" y2="2451.665"/><linearGradient id="SVGID_16_" gradientTransform="matrix(-1 0 0 -1 -3759.241 219.782)" gradientUnits="userSpaceOnUse" x1="-3786.28" x2="-3772.223" xlink:href="#lg3" y1=".242" y2="25.72"/><linearGradient id="SVGID_17_" gradientUnits="userSpaceOnUse" x1="386.179" x2="394.486" xlink:href="#lg3" y1="272.182" y2="287.238"/><linearGradient id="SVGID_18_" gradientUnits="userSpaceOnUse" x1="2.552" x2="10.859" xlink:href="#lg3" y1="430.961" y2="446.017"/><linearGradient id="SVGID_19_" gradientUnits="userSpaceOnUse" x1="379.889" x2="392.35" xlink:href="#lg3" y1="332.951" y2="355.535"/><linearGradient id="SVGID_20_" gradientUnits="userSpaceOnUse" x1="9.367" x2="21.828" xlink:href="#lg3" y1="233.547" y2="256.131"/><g><g><path d="m494.298 149.937c20.344-20.555 20.954-53.948 1.329-75.19-11.506-12.454-27.329-18.266-42.877-17.456.811-15.554-5.011-31.388-17.475-42.895-21.247-19.614-54.632-18.99-75.18 1.355-16.219 16.059-20.215 39.76-11.987 59.583 5.163 12.438 2.656 26.727-6.867 36.249l-36.443 36.443 57.212 57.212 36.443-36.443c9.522-9.522 23.811-12.031 36.248-6.868 19.828 8.234 43.538 4.236 59.597-11.99z" fill="url(#SVGID_1_)"/><path d="m359.901 92.931c11.353 11.353 26.484 16.642 41.346 15.861.669-12.966 5.958-25.73 15.861-35.633s22.673-15.197 35.639-15.867c.781-14.862-4.508-29.993-15.861-41.346-21.262-21.262-55.729-21.262-76.99 0-21.257 21.256-21.257 55.723.005 76.985z" fill="url(#SVGID_2_)"/></g><path d="m362.01 205.239 23.502-23.502-30.039-30.039c-3.319-3.853-8.551-5.824-13.879-4.544-3.244.78-6.567.191-9.279-1.473l-.065-.065c-.236-.236-4.686-4.686-4.686-4.686-2.81-2.81-6.213-4.76-9.847-5.823l-12.92 12.92z" fill="url(#SVGID_3_)"/><path d="m45.094 239.653-.097.618c-1.669 10.624-7.891 19.992-17.036 25.651l-.293.181c-13.743 8.504-20.353 24.962-16.311 40.609l.163.631c2.641 10.224.777 21.09-5.121 29.849l-.063.094c-9.176 13.626-8.241 31.677 2.294 44.283l1.19 1.423c6.326 7.569 9.073 17.503 7.535 27.247v.001c-2.57 16.277 6.453 32.169 21.747 38.302l1.345.54c9.352 3.751 16.764 11.163 20.513 20.516l.08.201c6.253 15.598 22.237 24.847 38.925 22.868 10.084-1.196 20.217 1.817 28.012 8.332l.493.412c12.601 10.533 30.647 11.471 44.271 2.301l.114-.077c8.756-5.894 19.617-7.756 29.836-5.115l.63.163c15.649 4.043 32.107-2.566 40.613-16.309l.182-.295c5.66-9.145 15.028-15.366 25.652-17.036l.618-.097c15.824-2.487 28.237-14.899 30.725-30.724l.097-.618c1.671-10.625 7.892-19.993 17.037-25.654l.3-.186c13.74-8.506 20.347-24.961 16.304-40.607l-.163-.632c-2.641-10.222-.778-21.085 5.119-29.842l.068-.101c4.439-6.592 3.401-17.995 1.036-28.196-2.49-10.738 2.661-21.461 12.134-27.099.1-.06.188-.117.262-.173 4.757-3.583 7.721-9.292 7.294-15.533-.253-3.702 1.353-7.291 4.135-9.747l12.124-10.703c5.102-4.504 5.793-12.434 1.161-17.419-3.279-3.529-4.185-8.645-2.328-13.08l5.926-14.153c4.022-9.605-3.033-20.208-13.446-20.208-3.183 0-5.91-2.279-6.474-5.412l-2.927-16.245c-1.451-8.055-9.218-13.372-17.176-11.46-5.168 1.242-10.54-.986-13.314-5.509l-.715-.715c-7.177-7.177-18.197-8.83-27.163-4.074-3.517 1.865-7.84 1.217-10.655-1.598-6.686-6.686-16.783-5.956-22.439 1.621l-5.844 7.83c-2.074 2.779-5.229 4.55-8.682 4.873l-9.33.873c-5.767.539-11.073 2.944-15.218 6.69-.029.026-.058.053-.088.081-7.005 6.603-16.719 9.585-26.12 7.513-9.634-2.124-19.982-.357-28.571 5.428l-.094.063c-8.755 5.899-19.619 7.764-29.84 5.123l-.637-.165c-15.648-4.043-32.106 2.567-40.612 16.31l-.183.295c-5.659 9.144-15.026 15.365-25.649 17.035l-.621.098c-15.825 2.488-28.238 14.902-30.725 30.727z" fill="url(#SVGID_4_)"/><path d="m381.618 200.479c4.022-9.605-3.033-20.208-13.446-20.208-3.183 0-5.91-2.279-6.474-5.412l-2.927-16.245c-1.451-8.055-9.218-13.372-17.176-11.46-.75.18-1.504.279-2.255.317l-2.614 6.242c-1.857 4.435-.951 9.551 2.328 13.08 4.633 4.985 3.941 12.915-1.161 17.419l-12.124 10.703c-2.782 2.456-4.388 6.045-4.135 9.747.427 6.242-2.537 11.95-7.294 15.533-.074.056-.162.114-.262.174-9.472 5.638-14.623 16.361-12.134 27.099 2.365 10.201 3.403 21.604-1.036 28.196l-.068.101c-5.897 8.757-7.761 19.621-5.119 29.842l.163.632c4.043 15.645-2.564 32.101-16.304 40.607l-.3.186c-9.145 5.661-15.366 15.029-17.037 25.655l-.097.618c-2.488 15.824-14.9 28.236-30.725 30.724l-.618.097c-10.625 1.67-19.992 7.891-25.652 17.036l-.182.295c-8.506 13.743-24.965 20.352-40.613 16.309l-.63-.163c-10.219-2.64-21.08-.778-29.836 5.115l-.114.077c-13.625 9.17-31.671 8.233-44.271-2.301l-.493-.412c-7.795-6.516-17.928-9.528-28.012-8.332-16.688 1.979-32.672-7.27-38.925-22.868l-.081-.201c-1.166-2.908-2.686-5.627-4.508-8.108.407 3.182.379 6.435-.132 9.668v.001c-2.57 16.277 6.453 32.169 21.747 38.302l1.345.54c9.352 3.751 16.764 11.163 20.513 20.516l.081.201c6.253 15.598 22.237 24.847 38.925 22.868 10.084-1.196 20.217 1.817 28.012 8.332l.493.412c12.601 10.533 30.647 11.471 44.271 2.301l.114-.077c8.756-5.894 19.617-7.756 29.836-5.115l.63.163c15.648 4.043 32.107-2.566 40.613-16.309l.182-.295c5.66-9.145 15.028-15.366 25.652-17.036l.618-.097c15.824-2.487 28.237-14.899 30.725-30.724l.097-.618c1.671-10.625 7.892-19.993 17.037-25.654l.3-.186c13.74-8.505 20.347-24.961 16.304-40.607l-.163-.632c-2.641-10.222-.778-21.085 5.119-29.842l.068-.101c4.439-6.592 3.401-17.995 1.036-28.196-2.49-10.738 2.662-21.461 12.134-27.099.1-.06.188-.118.262-.174 4.757-3.583 7.721-9.292 7.294-15.533-.253-3.702 1.352-7.291 4.135-9.747l12.124-10.703c5.102-4.504 5.794-12.434 1.161-17.419-3.279-3.529-4.185-8.644-2.328-13.08z" fill="url(#SVGID_5_)"/><g opacity=".6"><g><circle cx="78.909" cy="376.863" fill="url(#SVGID_6_)" r="10.947"/><circle cx="48.924" cy="394.62" fill="url(#SVGID_7_)" r="8.642"/><circle cx="80.506" cy="416.395" fill="url(#SVGID_8_)" r="5.21"/></g><g><circle cx="128.599" cy="407.672" fill="url(#SVGID_9_)" r="8.089"/><circle cx="104.047" cy="399.907" fill="url(#SVGID_10_)" r="6.386"/><circle cx="107.614" cy="428.027" fill="url(#SVGID_11_)" r="3.85"/></g><g><circle cx="302.41" cy="180.15" fill="url(#SVGID_12_)" r="8.089"/><circle cx="277.858" cy="172.384" fill="url(#SVGID_13_)" r="6.386"/><circle cx="281.425" cy="200.505" fill="url(#SVGID_14_)" r="3.85"/></g></g><path d="m371.63 289.001c8.734 0 8.734 31.627 0 31.627s-15.814-7.08-15.814-15.814 7.08-15.813 15.814-15.813z" fill="url(#SVGID_15_)"/><path d="m1.907 201.064c0-8.734 31.627-8.734 31.627 0s-7.08 15.814-15.814 15.814-15.813-7.081-15.813-15.814z" fill="url(#SVGID_16_)"/><circle cx="391.213" cy="281.305" fill="url(#SVGID_17_)" r="7.546"/><circle cx="7.586" cy="440.085" fill="url(#SVGID_18_)" r="7.546"/><circle cx="387.44" cy="346.637" fill="url(#SVGID_19_)" r="11.318"/><circle cx="16.918" cy="247.232" fill="url(#SVGID_20_)" r="11.318"/></g></svg>