<svg width="20" height="20" viewBox="0 0 20 20" fill="none" xmlns="http://www.w3.org/2000/svg">
<path d="M14.1665 1.66652C15.2707 1.66982 16.3286 2.10989 17.1094 2.89064C17.8901 3.67138 18.3302 4.72935 18.3335 5.83348V14.1665C18.3302 15.2707 17.8901 16.3286 17.1094 17.1094C16.3286 17.8901 15.2707 18.3302 14.1665 18.3335H5.83348C4.72935 18.3302 3.67138 17.8901 2.89064 17.1094C2.10989 16.3286 1.66982 15.2707 1.66652 14.1665V5.83348C1.66982 4.72935 2.10989 3.67138 2.89064 2.89064C3.67138 2.10989 4.72935 1.66982 5.83348 1.66652H14.1665ZM14.1665 0H5.83348C2.625 0 0 2.625 0 5.83348V14.1665C0 17.375 2.625 20 5.83348 20H14.1665C17.375 20 20 17.375 20 14.1665V5.83348C20 2.625 17.375 0 14.1665 0Z" fill="#323232"/>
<path d="M15.4165 5.83362C15.1693 5.83362 14.9276 5.76031 14.7221 5.62296C14.5165 5.4856 14.3563 5.29038 14.2617 5.06197C14.1671 4.83356 14.1423 4.58223 14.1905 4.33976C14.2388 4.09728 14.3578 3.87455 14.5326 3.69974C14.7075 3.52492 14.9302 3.40587 15.1727 3.35764C15.4151 3.30941 15.6665 3.33416 15.8949 3.42877C16.1233 3.52338 16.3185 3.68359 16.4559 3.88916C16.5932 4.09472 16.6665 4.33639 16.6665 4.58362C16.6669 4.74787 16.6348 4.91057 16.5721 5.06239C16.5094 5.21421 16.4173 5.35215 16.3012 5.46829C16.185 5.58443 16.0471 5.67649 15.8953 5.73919C15.7435 5.80188 15.5808 5.83397 15.4165 5.83362ZM10 6.66665C10.6593 6.66665 11.3038 6.86216 11.852 7.22845C12.4002 7.59474 12.8274 8.11535 13.0797 8.72447C13.332 9.33358 13.3981 10.0038 13.2694 10.6505C13.1408 11.2971 12.8233 11.8911 12.3571 12.3573C11.8909 12.8235 11.297 13.1409 10.6503 13.2696C10.0037 13.3982 9.33345 13.3322 8.72433 13.0799C8.11522 12.8276 7.5946 12.4003 7.22831 11.8521C6.86203 11.3039 6.66652 10.6594 6.66652 10.0001C6.66747 9.11633 7.01897 8.269 7.64392 7.64405C8.26886 7.01911 9.1162 6.6676 10 6.66665ZM10 5.00014C9.0111 5.00014 8.0444 5.29338 7.22215 5.84279C6.39991 6.39219 5.75904 7.17309 5.3806 8.08672C5.00217 9.00035 4.90315 10.0057 5.09608 10.9756C5.289 11.9455 5.76521 12.8364 6.46447 13.5357C7.16373 14.2349 8.05465 14.7111 9.02455 14.9041C9.99446 15.097 10.9998 14.998 11.9134 14.6195C12.827 14.2411 13.6079 13.6002 14.1574 12.778C14.7068 11.9557 15 10.989 15 10.0001C15 8.67405 14.4732 7.40228 13.5355 6.4646C12.5979 5.52692 11.3261 5.00014 10 5.00014Z" fill="#323232"/>
</svg>
