<svg width="218" height="84" viewBox="0 0 218 84" fill="none" xmlns="http://www.w3.org/2000/svg">
<path d="M100.44 46.64C98.1733 46.64 96.1867 46.0267 94.48 44.8C92.8 43.5733 91.6267 41.88 90.96 39.72L95.92 37.68C96.2667 38.96 96.8267 39.92 97.6 40.56C98.3733 41.2 99.32 41.52 100.44 41.52C101.693 41.52 102.667 41.12 103.36 40.32C104.053 39.52 104.4 38.4 104.4 36.96V17.36H109.8V36.92C109.8 38.52 109.547 39.9333 109.04 41.16C108.56 42.36 107.893 43.3733 107.04 44.2C106.213 45 105.227 45.6 104.08 46C102.96 46.4267 101.747 46.64 100.44 46.64ZM126.508 43.92H126.188C125.574 44.6667 124.828 45.3067 123.947 45.84C123.094 46.3733 121.988 46.64 120.628 46.64C119.614 46.64 118.654 46.4667 117.748 46.12C116.868 45.8 116.094 45.3467 115.428 44.76C114.761 44.1733 114.241 43.4667 113.868 42.64C113.494 41.8133 113.308 40.9067 113.308 39.92C113.308 38.9067 113.508 38 113.908 37.2C114.308 36.3733 114.868 35.6667 115.588 35.08C116.308 34.4933 117.148 34.0533 118.108 33.76C119.094 33.44 120.161 33.28 121.308 33.28C122.588 33.28 123.641 33.3867 124.468 33.6C125.294 33.7867 125.974 33.9867 126.508 34.2V33.6C126.508 32.56 126.094 31.7067 125.268 31.04C124.441 30.3467 123.414 30 122.188 30C120.374 30 118.841 30.76 117.588 32.28L113.788 29.68C115.868 27.0667 118.708 25.76 122.308 25.76C125.348 25.76 127.668 26.48 129.268 27.92C130.868 29.3333 131.668 31.44 131.668 34.24V46H126.508V43.92ZM126.508 38.04C125.894 37.7467 125.254 37.52 124.588 37.36C123.948 37.1733 123.241 37.08 122.467 37.08C121.214 37.08 120.241 37.36 119.548 37.92C118.881 38.4533 118.548 39.12 118.548 39.92C118.548 40.72 118.868 41.36 119.508 41.84C120.174 42.32 120.934 42.56 121.788 42.56C122.481 42.56 123.121 42.44 123.708 42.2C124.294 41.9333 124.788 41.6 125.188 41.2C125.614 40.7733 125.934 40.2933 126.148 39.76C126.388 39.2 126.508 38.6267 126.508 38.04ZM135.834 26.4H140.754V29.12H141.074C141.314 28.64 141.634 28.2 142.034 27.8C142.434 27.4 142.874 27.0533 143.354 26.76C143.86 26.4667 144.394 26.24 144.954 26.08C145.54 25.92 146.114 25.84 146.674 25.84C147.367 25.84 147.954 25.9067 148.434 26.04C148.94 26.1733 149.367 26.3467 149.714 26.56L148.314 31.32C147.994 31.16 147.634 31.04 147.234 30.96C146.86 30.8533 146.394 30.8 145.834 30.8C145.114 30.8 144.46 30.9467 143.874 31.24C143.287 31.5067 142.78 31.8933 142.354 32.4C141.954 32.9067 141.634 33.5067 141.394 34.2C141.18 34.8667 141.074 35.6 141.074 36.4V46H135.834V26.4ZM160.323 46.64C158.056 46.64 156.069 46.0267 154.363 44.8C152.683 43.5733 151.509 41.88 150.843 39.72L155.803 37.68C156.149 38.96 156.709 39.92 157.483 40.56C158.256 41.2 159.203 41.52 160.323 41.52C161.576 41.52 162.549 41.12 163.243 40.32C163.936 39.52 164.283 38.4 164.283 36.96V17.36H169.683V36.92C169.683 38.52 169.429 39.9333 168.923 41.16C168.443 42.36 167.776 43.3733 166.923 44.2C166.096 45 165.109 45.6 163.963 46C162.843 46.4267 161.629 46.64 160.323 46.64ZM192.48 41.28C191.573 42.88 190.346 44.1733 188.8 45.16C187.28 46.1467 185.413 46.64 183.2 46.64C181.706 46.64 180.32 46.3867 179.04 45.88C177.786 45.3467 176.693 44.6133 175.76 43.68C174.826 42.7467 174.093 41.6533 173.56 40.4C173.053 39.12 172.8 37.72 172.8 36.2C172.8 34.7867 173.053 33.4533 173.56 32.2C174.066 30.92 174.773 29.8133 175.68 28.88C176.586 27.92 177.653 27.16 178.88 26.6C180.133 26.04 181.506 25.76 183 25.76C184.573 25.76 185.973 26.0267 187.2 26.56C188.426 27.0667 189.453 27.7867 190.28 28.72C191.106 29.6267 191.733 30.7067 192.16 31.96C192.586 33.2133 192.8 34.5733 192.8 36.04C192.8 36.2267 192.8 36.3867 192.8 36.52C192.773 36.68 192.76 36.8267 192.76 36.96C192.733 37.0933 192.72 37.24 192.72 37.4H177.96C178.066 38.2 178.28 38.8933 178.6 39.48C178.946 40.04 179.36 40.52 179.84 40.92C180.346 41.2933 180.893 41.5733 181.48 41.76C182.066 41.92 182.666 42 183.28 42C184.48 42 185.466 41.7333 186.24 41.2C187.04 40.64 187.666 39.9467 188.12 39.12L192.48 41.28ZM187.72 33.68C187.693 33.3333 187.573 32.9467 187.36 32.52C187.173 32.0933 186.88 31.6933 186.48 31.32C186.106 30.9467 185.626 30.64 185.04 30.4C184.48 30.16 183.8 30.04 183 30.04C181.88 30.04 180.893 30.36 180.04 31C179.186 31.64 178.586 32.5333 178.24 33.68H187.72ZM196.146 26.4H201.066V29.12H201.386C201.626 28.64 201.946 28.2 202.346 27.8C202.746 27.4 203.186 27.0533 203.666 26.76C204.173 26.4667 204.706 26.24 205.266 26.08C205.853 25.92 206.426 25.84 206.986 25.84C207.68 25.84 208.266 25.9067 208.746 26.04C209.253 26.1733 209.68 26.3467 210.026 26.56L208.626 31.32C208.306 31.16 207.946 31.04 207.546 30.96C207.173 30.8533 206.706 30.8 206.146 30.8C205.426 30.8 204.773 30.9467 204.186 31.24C203.6 31.5067 203.093 31.8933 202.666 32.4C202.266 32.9067 201.946 33.5067 201.706 34.2C201.493 34.8667 201.386 35.6 201.386 36.4V46H196.146V26.4Z" fill="#323232"/>
<path d="M113.952 66.474V72H112.296V59.112H119.82V60.696H113.952V64.926H119.244V66.474H113.952ZM120.363 67.59C120.363 66.234 120.789 65.112 121.641 64.224C122.505 63.336 123.591 62.892 124.899 62.892C126.207 62.892 127.287 63.336 128.139 64.224C129.003 65.112 129.435 66.234 129.435 67.59C129.435 68.958 129.003 70.08 128.139 70.956C127.287 71.844 126.207 72.288 124.899 72.288C123.591 72.288 122.505 71.844 121.641 70.956C120.789 70.068 120.363 68.946 120.363 67.59ZM122.019 67.59C122.019 68.538 122.295 69.306 122.847 69.894C123.399 70.482 124.083 70.776 124.899 70.776C125.715 70.776 126.399 70.482 126.951 69.894C127.503 69.306 127.779 68.538 127.779 67.59C127.779 66.654 127.503 65.892 126.951 65.304C126.387 64.704 125.703 64.404 124.899 64.404C124.095 64.404 123.411 64.704 122.847 65.304C122.295 65.892 122.019 66.654 122.019 67.59ZM130.436 67.59C130.436 66.234 130.862 65.112 131.714 64.224C132.578 63.336 133.664 62.892 134.972 62.892C136.28 62.892 137.36 63.336 138.212 64.224C139.076 65.112 139.508 66.234 139.508 67.59C139.508 68.958 139.076 70.08 138.212 70.956C137.36 71.844 136.28 72.288 134.972 72.288C133.664 72.288 132.578 71.844 131.714 70.956C130.862 70.068 130.436 68.946 130.436 67.59ZM132.092 67.59C132.092 68.538 132.368 69.306 132.92 69.894C133.472 70.482 134.156 70.776 134.972 70.776C135.788 70.776 136.472 70.482 137.024 69.894C137.576 69.306 137.852 68.538 137.852 67.59C137.852 66.654 137.576 65.892 137.024 65.304C136.46 64.704 135.776 64.404 134.972 64.404C134.168 64.404 133.484 64.704 132.92 65.304C132.368 65.892 132.092 66.654 132.092 67.59ZM144.972 70.776C145.788 70.776 146.454 70.482 146.97 69.894C147.51 69.306 147.78 68.538 147.78 67.59C147.78 66.666 147.51 65.904 146.97 65.304C146.442 64.704 145.776 64.404 144.972 64.404C144.18 64.404 143.514 64.704 142.974 65.304C142.434 65.904 142.164 66.666 142.164 67.59C142.164 68.526 142.434 69.288 142.974 69.876C143.514 70.476 144.18 70.776 144.972 70.776ZM144.702 72.288C143.55 72.288 142.56 71.832 141.732 70.92C140.916 69.996 140.508 68.886 140.508 67.59C140.508 66.294 140.916 65.184 141.732 64.26C142.56 63.348 143.55 62.892 144.702 62.892C145.35 62.892 145.938 63.03 146.466 63.306C147.006 63.582 147.42 63.948 147.708 64.404H147.78L147.708 63.18V59.112H149.364V72H147.78V70.776H147.708C147.42 71.232 147.006 71.598 146.466 71.874C145.938 72.15 145.35 72.288 144.702 72.288ZM155.626 72V59.112H159.568C161.536 59.112 163.114 59.706 164.302 60.894C165.502 62.082 166.102 63.636 166.102 65.556C166.102 67.488 165.502 69.048 164.302 70.236C163.114 71.412 161.536 72 159.568 72H155.626ZM157.282 60.696V70.416H159.568C161.068 70.416 162.25 69.99 163.114 69.138C163.978 68.274 164.41 67.08 164.41 65.556C164.41 64.044 163.978 62.856 163.114 61.992C162.25 61.128 161.068 60.696 159.568 60.696H157.282ZM171.48 72.288C170.184 72.288 169.116 71.844 168.276 70.956C167.436 70.068 167.016 68.946 167.016 67.59C167.016 66.246 167.424 65.13 168.24 64.242C169.056 63.342 170.1 62.892 171.372 62.892C172.68 62.892 173.718 63.318 174.486 64.17C175.266 65.01 175.656 66.192 175.656 67.716L175.638 67.896H168.708C168.732 68.76 169.02 69.456 169.572 69.984C170.124 70.512 170.784 70.776 171.552 70.776C172.608 70.776 173.436 70.248 174.036 69.192L175.512 69.912C175.116 70.656 174.564 71.238 173.856 71.658C173.16 72.078 172.368 72.288 171.48 72.288ZM168.834 66.528H173.892C173.844 65.916 173.592 65.412 173.136 65.016C172.692 64.608 172.092 64.404 171.336 64.404C170.712 64.404 170.172 64.596 169.716 64.98C169.272 65.364 168.978 65.88 168.834 66.528ZM178.826 59.112V72H177.17V59.112H178.826ZM182.986 60.138C182.986 60.462 182.872 60.738 182.644 60.966C182.416 61.194 182.14 61.308 181.816 61.308C181.492 61.308 181.216 61.194 180.988 60.966C180.76 60.738 180.646 60.462 180.646 60.138C180.646 59.814 180.76 59.538 180.988 59.31C181.216 59.082 181.492 58.968 181.816 58.968C182.14 58.968 182.416 59.082 182.644 59.31C182.872 59.538 182.986 59.814 182.986 60.138ZM182.644 63.18V72H180.988V63.18H182.644ZM189.083 72H187.427L183.863 63.18H185.663L188.255 70.02H188.291L190.919 63.18H192.683L189.083 72ZM197.46 72.288C196.164 72.288 195.096 71.844 194.256 70.956C193.416 70.068 192.996 68.946 192.996 67.59C192.996 66.246 193.404 65.13 194.22 64.242C195.036 63.342 196.08 62.892 197.352 62.892C198.66 62.892 199.698 63.318 200.466 64.17C201.246 65.01 201.636 66.192 201.636 67.716L201.618 67.896H194.688C194.712 68.76 195 69.456 195.552 69.984C196.104 70.512 196.764 70.776 197.532 70.776C198.588 70.776 199.416 70.248 200.016 69.192L201.492 69.912C201.096 70.656 200.544 71.238 199.836 71.658C199.14 72.078 198.348 72.288 197.46 72.288ZM194.814 66.528H199.872C199.824 65.916 199.572 65.412 199.116 65.016C198.672 64.608 198.072 64.404 197.316 64.404C196.692 64.404 196.152 64.596 195.696 64.98C195.252 65.364 194.958 65.88 194.814 66.528ZM204.807 72H203.151V63.18H204.735V64.62H204.807C204.975 64.152 205.317 63.756 205.833 63.432C206.361 63.096 206.877 62.928 207.381 62.928C207.861 62.928 208.269 63 208.605 63.144L208.101 64.746C207.897 64.662 207.573 64.62 207.129 64.62C206.505 64.62 205.959 64.872 205.491 65.376C205.035 65.88 204.807 66.468 204.807 67.14V72ZM217.749 63.18L212.223 75.888H210.513L212.565 71.442L208.929 63.18H210.729L213.357 69.516H213.393L215.949 63.18H217.749Z" fill="#2D2D2D"/>
<path d="M10.5 10.794V26.411V26.726V26.411C10.5 30.87 12.3375 34.818 15.1865 37.373C16.5795 38.6225 17.5 40.3095 17.5 42.182V68.25C17.5 71.148 19.852 73.5 22.75 73.5C25.648 73.5 28 71.148 28 68.25V42.182C28 40.3095 28.9205 38.6225 30.3135 37.373C33.1625 34.818 35 30.87 35 26.411V10.794V26.411" stroke="#323232" stroke-width="6" stroke-linecap="round" stroke-linejoin="round"/>
<path d="M22.75 28V10.5" stroke="#323232" stroke-width="6" stroke-linecap="round" stroke-linejoin="round"/>
<path d="M70 14.182C70 12.25 68.432 10.682 66.5 10.682H63C57.2005 10.682 52.5 15.3825 52.5 21.182V42.182C52.5 46.746 55.4295 50.5925 59.5 52.038V68.25C59.5 71.148 61.852 73.5 64.75 73.5C67.648 73.5 70 71.148 70 68.25V52.682V14.182Z" stroke="#323232" stroke-width="6" stroke-linecap="round" stroke-linejoin="round"/>
</svg>
