<svg id="Capa_1" enable-background="new 0 0 510 510" height="512" viewBox="0 0 510 510" width="512" xmlns="http://www.w3.org/2000/svg" xmlns:xlink="http://www.w3.org/1999/xlink"><linearGradient id="lg1"><stop offset="0" stop-color="#ffd945"/><stop offset=".3043" stop-color="#ffcd3e"/><stop offset=".8558" stop-color="#ffad2b"/><stop offset="1" stop-color="#ffa325"/></linearGradient><linearGradient id="SVGID_1_" gradientUnits="userSpaceOnUse" x1="364.48" x2="291.89" xlink:href="#lg1" y1="104.476" y2="240.468"/><linearGradient id="lg2"><stop offset="0" stop-color="#f82814" stop-opacity="0"/><stop offset=".2454" stop-color="#f12817" stop-opacity=".245"/><stop offset=".6052" stop-color="#dd2820" stop-opacity=".605"/><stop offset="1" stop-color="#c0272d"/></linearGradient><linearGradient id="SVGID_2_" gradientUnits="userSpaceOnUse" x1="474.085" x2="431.817" xlink:href="#lg2" y1="318.683" y2="308.116"/><linearGradient id="lg3"><stop offset="0" stop-color="#bada00"/><stop offset=".2269" stop-color="#b0ce00"/><stop offset=".6378" stop-color="#95ae00"/><stop offset="1" stop-color="#798c00"/></linearGradient><linearGradient id="SVGID_3_" gradientUnits="userSpaceOnUse" x1="359.62" x2="337.779" xlink:href="#lg3" y1="141.762" y2="163.603"/><linearGradient id="lg4"><stop offset="0" stop-color="#798c00" stop-opacity="0"/><stop offset=".6542" stop-color="#556100" stop-opacity=".654"/><stop offset="1" stop-color="#464f00"/></linearGradient><linearGradient id="SVGID_4_" gradientUnits="userSpaceOnUse" x1="378.189" x2="294.266" xlink:href="#lg4" y1="225.087" y2="217.736"/><linearGradient id="lg5"><stop offset="0" stop-color="#ff6359"/><stop offset=".2243" stop-color="#fe5b50"/><stop offset=".5952" stop-color="#fc4637"/><stop offset="1" stop-color="#f82814"/></linearGradient><linearGradient id="SVGID_5_" gradientUnits="userSpaceOnUse" x1="229.239" x2="216.988" xlink:href="#lg5" y1="47.916" y2="101.21"/><linearGradient id="SVGID_6_" gradientUnits="userSpaceOnUse" x1="371.584" x2="359.333" xlink:href="#lg5" y1="198.891" y2="252.186"/><linearGradient id="lg6"><stop offset="0" stop-color="#ffdecf"/><stop offset=".3791" stop-color="#fdc4b0"/><stop offset=".7655" stop-color="#fbae97"/><stop offset="1" stop-color="#faa68e"/></linearGradient><linearGradient id="SVGID_7_" gradientTransform="matrix(.707 .707 -.707 .707 -696.473 -940.461)" gradientUnits="userSpaceOnUse" x1="1614.191" x2="1640.252" xlink:href="#lg6" y1="32.879" y2="86.11"/><linearGradient id="SVGID_8_" gradientTransform="matrix(-.707 -.707 .707 -.707 2562.724 -1997.444)" gradientUnits="userSpaceOnUse" x1="-92.373" x2="-70.695" xlink:href="#lg6" y1="-3157.149" y2="-3112.87"/><linearGradient id="SVGID_9_" gradientTransform="matrix(.707 .707 -.707 .707 -696.473 -940.461)" gradientUnits="userSpaceOnUse" x1="1426.867" x2="1452.928" xlink:href="#lg6" y1="20.018" y2="73.248"/><linearGradient id="SVGID_10_" gradientTransform="matrix(-.707 -.707 .707 -.707 2562.724 -1997.444)" gradientUnits="userSpaceOnUse" x1="94.951" x2="116.629" xlink:href="#lg6" y1="-3144.288" y2="-3100.009"/><linearGradient id="lg7"><stop offset="0" stop-color="#a57c52"/><stop offset=".1339" stop-color="#a26c4a"/><stop offset=".5155" stop-color="#994336"/><stop offset=".8174" stop-color="#942a2a"/><stop offset="1" stop-color="#922125"/></linearGradient><linearGradient id="SVGID_11_" gradientTransform="matrix(1.094 .15 .05 1.104 -164.955 -280.704)" gradientUnits="userSpaceOnUse" x1="443.949" x2="401.717" xlink:href="#lg7" y1="337.945" y2="380.178"/><linearGradient id="SVGID_12_" gradientUnits="userSpaceOnUse" x1="256.265" x2="256.265" xlink:href="#lg1" y1="104.023" y2="163.487"/><linearGradient id="SVGID_13_" gradientUnits="userSpaceOnUse" x1="330.861" x2="314.512" xlink:href="#lg3" y1="175.272" y2="190.069"/><linearGradient id="SVGID_14_" gradientUnits="userSpaceOnUse" x1="335.717" x2="271.411" xlink:href="#lg1" y1="135.58" y2="256.051"/><linearGradient id="lg8"><stop offset="0" stop-color="#f82814" stop-opacity="0"/><stop offset=".2918" stop-color="#ec2819" stop-opacity=".292"/><stop offset=".8165" stop-color="#cd2727" stop-opacity=".817"/><stop offset="1" stop-color="#c0272d"/></linearGradient><linearGradient id="SVGID_15_" gradientUnits="userSpaceOnUse" x1="309.253" x2="275.24" xlink:href="#lg8" y1="189.255" y2="223.268"/><linearGradient id="SVGID_16_" gradientUnits="userSpaceOnUse" x1="147.364" x2="299.895" y1="128.178" y2="424.053"><stop offset="0" stop-color="#faa68e"/><stop offset=".2061" stop-color="#fba682"/><stop offset=".5808" stop-color="#fda861"/><stop offset="1" stop-color="#ffa936"/></linearGradient><linearGradient id="SVGID_17_" gradientUnits="userSpaceOnUse" x1="260.397" x2="260.397" xlink:href="#lg2" y1="333.498" y2="425.458"/><linearGradient id="SVGID_18_" gradientTransform="matrix(-.768 -.64 .64 -.768 4618.43 -1711.227)" gradientUnits="userSpaceOnUse" x1="2244.616" x2="2266.063" xlink:href="#lg2" y1="-4242.697" y2="-4212.964"/><linearGradient id="SVGID_19_" gradientTransform="matrix(-.768 -.64 .64 -.768 4618.43 -1711.227)" gradientUnits="userSpaceOnUse" x1="2259.324" x2="2276.255" xlink:href="#lg2" y1="-4261.475" y2="-4238.002"/><linearGradient id="SVGID_20_" gradientTransform="matrix(-.768 -.64 .64 -.768 4618.43 -1711.227)" gradientUnits="userSpaceOnUse" x1="2234.591" x2="2244.799" xlink:href="#lg2" y1="-4262.131" y2="-4247.98"/><linearGradient id="SVGID_21_" gradientTransform="matrix(-.811 .585 -.585 -.811 -498.437 -3088.112)" gradientUnits="userSpaceOnUse" x1="1475.512" x2="1496.959" xlink:href="#lg2" y1="-3137.144" y2="-3107.411"/><linearGradient id="SVGID_22_" gradientTransform="matrix(-.811 .585 -.585 -.811 -498.437 -3088.112)" gradientUnits="userSpaceOnUse" x1="1490.221" x2="1507.152" xlink:href="#lg2" y1="-3155.922" y2="-3132.449"/><linearGradient id="SVGID_23_" gradientTransform="matrix(-.811 .585 -.585 -.811 -498.437 -3088.112)" gradientUnits="userSpaceOnUse" x1="1465.488" x2="1475.695" xlink:href="#lg2" y1="-3156.579" y2="-3142.427"/><linearGradient id="SVGID_24_" gradientTransform="matrix(-.035 -.999 .999 -.035 4340.325 -60.14)" gradientUnits="userSpaceOnUse" x1="-48.731" x2="-32.883" xlink:href="#lg2" y1="-4143.15" y2="-4121.179"/><linearGradient id="SVGID_25_" gradientTransform="matrix(-.035 -.999 .999 -.035 4340.325 -60.14)" gradientUnits="userSpaceOnUse" x1="-37.863" x2="-25.352" xlink:href="#lg2" y1="-4157.025" y2="-4139.68"/><linearGradient id="SVGID_26_" gradientTransform="matrix(-.035 -.999 .999 -.035 4340.325 -60.14)" gradientUnits="userSpaceOnUse" x1="-56.139" x2="-48.596" xlink:href="#lg2" y1="-4157.511" y2="-4147.054"/><linearGradient id="SVGID_27_" gradientTransform="matrix(-.035 -.999 .999 -.035 4340.325 -60.14)" gradientUnits="userSpaceOnUse" x1="-256.48" x2="-240.632" xlink:href="#lg2" y1="-4019.051" y2="-3997.08"/><linearGradient id="SVGID_28_" gradientTransform="matrix(-.035 -.999 .999 -.035 4340.325 -60.14)" gradientUnits="userSpaceOnUse" x1="-245.611" x2="-233.1" xlink:href="#lg2" y1="-4032.927" y2="-4015.582"/><linearGradient id="SVGID_29_" gradientTransform="matrix(-.035 -.999 .999 -.035 4340.325 -60.14)" gradientUnits="userSpaceOnUse" x1="-263.887" x2="-256.344" xlink:href="#lg2" y1="-4033.412" y2="-4022.955"/><linearGradient id="SVGID_30_" gradientUnits="userSpaceOnUse" x1="282.882" x2="224.074" xlink:href="#lg1" y1="209.807" y2="279.641"/><linearGradient id="SVGID_31_" gradientUnits="userSpaceOnUse" x1="287.849" x2="215.259" xlink:href="#lg1" y1="235.951" y2="371.943"/><linearGradient id="SVGID_32_" gradientUnits="userSpaceOnUse" x1="398.537" x2="356.269" xlink:href="#lg2" y1="450.737" y2="440.17"/><linearGradient id="SVGID_33_" gradientUnits="userSpaceOnUse" x1="284.072" x2="262.231" xlink:href="#lg3" y1="273.816" y2="295.657"/><linearGradient id="SVGID_34_" gradientUnits="userSpaceOnUse" x1="302.641" x2="218.718" xlink:href="#lg4" y1="357.141" y2="349.79"/><linearGradient id="SVGID_35_" gradientUnits="userSpaceOnUse" x1="153.692" x2="141.44" xlink:href="#lg5" y1="179.97" y2="233.264"/><linearGradient id="SVGID_36_" gradientUnits="userSpaceOnUse" x1="296.037" x2="283.785" xlink:href="#lg5" y1="330.945" y2="384.239"/><linearGradient id="SVGID_37_" gradientTransform="matrix(.707 .707 -.707 .707 -696.473 -940.461)" gradientUnits="userSpaceOnUse" x1="1654.147" x2="1680.208" xlink:href="#lg6" y1="179.675" y2="232.906"/><linearGradient id="SVGID_38_" gradientTransform="matrix(-.707 -.707 .707 -.707 2562.724 -1997.444)" gradientUnits="userSpaceOnUse" x1="-132.329" x2="-110.651" xlink:href="#lg6" y1="-3303.945" y2="-3259.667"/><linearGradient id="SVGID_39_" gradientTransform="matrix(.707 .707 -.707 .707 -696.473 -940.461)" gradientUnits="userSpaceOnUse" x1="1466.823" x2="1492.884" xlink:href="#lg6" y1="166.814" y2="220.045"/><linearGradient id="SVGID_40_" gradientTransform="matrix(-.707 -.707 .707 -.707 2562.724 -1997.444)" gradientUnits="userSpaceOnUse" x1="54.995" x2="76.673" xlink:href="#lg6" y1="-3291.084" y2="-3246.805"/><linearGradient id="SVGID_41_" gradientTransform="matrix(1.094 .15 .05 1.104 -164.955 -280.704)" gradientUnits="userSpaceOnUse" x1="369.017" x2="326.784" xlink:href="#lg7" y1="467.815" y2="510.048"/><linearGradient id="SVGID_42_" gradientUnits="userSpaceOnUse" x1="180.718" x2="180.718" xlink:href="#lg1" y1="236.077" y2="295.541"/><linearGradient id="SVGID_43_" gradientUnits="userSpaceOnUse" x1="255.313" x2="238.965" xlink:href="#lg3" y1="307.326" y2="322.123"/><linearGradient id="SVGID_44_" gradientUnits="userSpaceOnUse" x1="259.086" x2="194.78" xlink:href="#lg1" y1="267.055" y2="387.526"/><linearGradient id="SVGID_45_" gradientUnits="userSpaceOnUse" x1="235.223" x2="201.21" xlink:href="#lg8" y1="322.826" y2="356.839"/><linearGradient id="SVGID_46_" gradientUnits="userSpaceOnUse" x1="69.258" x2="221.789" xlink:href="#lg1" y1="261.551" y2="557.426"/><linearGradient id="SVGID_47_" gradientUnits="userSpaceOnUse" x1="184.85" x2="184.85" xlink:href="#lg2" y1="465.552" y2="557.512"/><linearGradient id="SVGID_48_" gradientTransform="matrix(-.768 -.64 .64 -.768 4618.43 -1711.227)" gradientUnits="userSpaceOnUse" x1="2218.128" x2="2239.575" xlink:href="#lg2" y1="-4392.511" y2="-4362.777"/><linearGradient id="SVGID_49_" gradientTransform="matrix(-.768 -.64 .64 -.768 4618.43 -1711.227)" gradientUnits="userSpaceOnUse" x1="2232.837" x2="2249.768" xlink:href="#lg2" y1="-4411.288" y2="-4387.815"/><linearGradient id="SVGID_50_" gradientTransform="matrix(-.768 -.64 .64 -.768 4618.43 -1711.227)" gradientUnits="userSpaceOnUse" x1="2208.104" x2="2218.312" xlink:href="#lg2" y1="-4411.945" y2="-4397.794"/><linearGradient id="SVGID_51_" gradientTransform="matrix(-.811 .585 -.585 -.811 -498.437 -3088.112)" gradientUnits="userSpaceOnUse" x1="1613.994" x2="1635.441" xlink:href="#lg2" y1="-3200.14" y2="-3170.407"/><linearGradient id="SVGID_52_" gradientTransform="matrix(-.811 .585 -.585 -.811 -498.437 -3088.112)" gradientUnits="userSpaceOnUse" x1="1628.702" x2="1645.634" xlink:href="#lg2" y1="-3218.918" y2="-3195.445"/><linearGradient id="SVGID_53_" gradientTransform="matrix(-.811 .585 -.585 -.811 -498.437 -3088.112)" gradientUnits="userSpaceOnUse" x1="1603.97" x2="1614.177" xlink:href="#lg2" y1="-3219.574" y2="-3205.423"/><linearGradient id="SVGID_54_" gradientTransform="matrix(-.035 -.999 .999 -.035 4340.325 -60.14)" gradientUnits="userSpaceOnUse" x1="-178.047" x2="-162.199" xlink:href="#lg2" y1="-4223.295" y2="-4201.324"/><linearGradient id="SVGID_55_" gradientTransform="matrix(-.035 -.999 .999 -.035 4340.325 -60.14)" gradientUnits="userSpaceOnUse" x1="-167.178" x2="-154.667" xlink:href="#lg2" y1="-4237.17" y2="-4219.825"/><linearGradient id="SVGID_56_" gradientTransform="matrix(-.035 -.999 .999 -.035 4340.325 -60.14)" gradientUnits="userSpaceOnUse" x1="-185.454" x2="-177.911" xlink:href="#lg2" y1="-4237.656" y2="-4227.199"/><linearGradient id="SVGID_57_" gradientTransform="matrix(-.035 -.999 .999 -.035 4340.325 -60.14)" gradientUnits="userSpaceOnUse" x1="-385.795" x2="-369.947" xlink:href="#lg2" y1="-4099.196" y2="-4077.225"/><linearGradient id="SVGID_58_" gradientTransform="matrix(-.035 -.999 .999 -.035 4340.325 -60.14)" gradientUnits="userSpaceOnUse" x1="-374.926" x2="-362.415" xlink:href="#lg2" y1="-4113.071" y2="-4095.727"/><linearGradient id="SVGID_59_" gradientTransform="matrix(-.035 -.999 .999 -.035 4340.325 -60.14)" gradientUnits="userSpaceOnUse" x1="-393.202" x2="-385.659" xlink:href="#lg2" y1="-4113.557" y2="-4103.1"/><g><g><path d="m494.438 329.035c7.956-4.131 10.619-15.132 4.058-22.464l-269.989-301.753c-5.124-5.727-13.141-6.115-18.779-2.397l-63.485 37.675c-3.289 1.717-59.306 270.535-62.836 311.465-.655 7.6 4.703 14.392 12.246 15.528 44.694 6.731 106.167 5.276 172.502 5.276 59.892 0 113.665 2.217 156.671-3.39 2.321-.303 4.378-1.109 6.128-2.266z" fill="url(#SVGID_1_)"/><path d="m498.495 306.57-46.862-52.375-57.557 57.557 36.798 55.003c.025-.016.054-.029.079-.046l63.484-37.674c7.956-4.131 10.619-15.132 4.058-22.465z" fill="url(#SVGID_2_)"/><path d="m179.949 34.159c-48.751 43.182 221.116 347.861 269.868 304.68 8.406-7.445 7.334-22.668-.439-42.539-2.824-7.218-4.027-15.118-3.343-23.218l.073-.869c1.485-17.612-7.539-33.214-23.111-39.955l-.012-.005c-13.303-5.758-21.993-18.059-23.182-32.816l-.113-1.404c-1.312-16.271-11.837-29.367-27.324-34l-1.183-.354c-14.224-4.255-24.353-15.688-26.862-30.321l-.21-1.226c-2.732-15.933-14.463-27.961-30.458-31.226l-1.673-.342c-14.424-2.945-25.491-13.051-29.473-26.914-4.668-16.249-18.97-27.108-36.556-27.756l-1.183-.044c-8.123-.299-15.82-2.447-22.644-6.121-18.788-10.113-33.77-13.015-42.175-5.57z" fill="url(#SVGID_3_)"/><path d="m449.38 296.302c-2.83-7.222-4.025-15.124-3.345-23.22l.073-.873c1.479-17.605-7.544-33.208-23.109-39.952h-.018c-13.296-5.761-21.988-18.065-23.183-32.822l-.11-1.397c-1.314-16.273-11.835-29.376-27.327-34.007l-1.176-.349c-14.224-4.254-24.359-15.694-26.868-30.323l-.211-1.222c-1.709-9.997-6.965-18.451-14.591-24.166 6.055 17.008 2.279 36.727-11.33 50.335l-49.513 49.513c69.321 80.741 155.599 153.649 181.15 131.017 8.397-7.442 7.332-22.668-.442-42.534z" fill="url(#SVGID_4_)"/><circle cx="221.167" cy="83.03" fill="url(#SVGID_5_)" r="43.933"/><circle cx="363.512" cy="234.006" fill="url(#SVGID_6_)" r="43.933"/><g><path d="m441.55 231.643c-18.836-18.836-49.376-18.836-68.212 0s-18.836 49.376 0 68.212 49.376 18.836 68.212 0 18.837-49.376 0-68.212zm-55.764 55.764c-11.96-11.96-11.96-31.356 0-43.316s31.352-11.955 43.311.005c11.96 11.96 11.965 31.352.005 43.311-11.959 11.96-31.356 11.96-43.316 0z" fill="url(#SVGID_7_)"/><path d="m379.074 294.119c15.666 15.666 41.074 15.666 56.74 0 15.671-15.671 15.666-41.074 0-56.74-15.671-15.671-41.069-15.671-56.74 0-15.666 15.666-15.671 41.069 0 56.74zm50.029-50.028c11.96 11.96 11.96 31.356 0 43.316s-31.352 11.955-43.311-.005c-11.96-11.96-11.965-31.352-.005-43.311 11.959-11.96 31.356-11.96 43.316 0z" fill="url(#SVGID_8_)"/></g><g><path d="m318.187 90.091c-18.836-18.836-49.376-18.836-68.212 0s-18.836 49.376 0 68.212 49.376 18.836 68.212 0 18.836-49.376 0-68.212zm-55.765 55.764c-11.96-11.96-11.96-31.356 0-43.316s31.352-11.955 43.311.005 11.965 31.352.005 43.312c-11.959 11.959-31.356 11.959-43.316-.001z" fill="url(#SVGID_9_)"/><path d="m255.71 152.567c15.666 15.666 41.074 15.666 56.74 0 15.671-15.671 15.666-41.074 0-56.74-15.671-15.671-41.069-15.671-56.74 0-15.666 15.666-15.671 41.069 0 56.74zm50.029-50.028c11.96 11.96 11.96 31.356 0 43.316s-31.352 11.955-43.311-.005c-11.96-11.96-11.965-31.352-.005-43.311 11.959-11.96 31.356-11.96 43.316 0z" fill="url(#SVGID_10_)"/></g><path d="m419.223 320.711 6.925-6.319c10.021-9.144 11.427-25.281 3.283-39.2-18.226-31.15-50.463-73.589-90.479-117.441s-79.335-79.829-108.69-100.823c-13.118-9.381-29.315-9.454-39.336-.31l-6.925 6.319c-4.968 4.533-3.267 13.568 3.41 17.903 30.031 19.495 73.685 58.526 118.213 107.323s79.411 95.832 96.083 127.518c3.707 7.045 12.548 9.564 17.516 5.03z" fill="url(#SVGID_11_)"/><path d="m226.563 108.761c11.803 22.064 29.877 40.139 51.941 51.941 3.677 1.967 8.123-.697 8.123-4.867v-40.278c0-8.24-6.68-14.92-14.92-14.92h-40.277c-4.17.001-6.834 4.447-4.867 8.124z" fill="url(#SVGID_12_)"/><path d="m171.923 44.658c-24.895 22.051 244.972 326.73 269.868 304.679 4.292-3.802-.183-16.01-10.651-33.494-3.803-6.351-6.594-12.844-8.066-19.035l-.158-.664c-3.2-13.463-13.539-27.9-26.478-36.973l-.01-.007c-11.053-7.75-20.348-19.516-24.796-31.387l-.423-1.129c-4.904-13.089-15.724-25.924-28.089-33.322l-.945-.565c-11.357-6.794-21.486-18.228-26.86-30.322l-.45-1.013c-5.852-13.169-17.288-25.458-29.69-31.906l-1.297-.675c-11.184-5.815-21.671-16.435-27.929-28.283-7.334-13.887-20.353-25.884-33.273-30.664l-.869-.322c-5.968-2.208-12.076-5.763-17.921-10.304-16.092-12.5-27.67-18.416-31.963-14.614z" fill="url(#SVGID_13_)"/><path d="m462.97 347.713-32.013 18.993c-1.755 1.158-3.813 1.966-6.129 2.27-43.012 5.605-96.782-9.574-156.674-9.574-66.333 0-127.807 14.416-172.5 7.69-7.544-1.139-12.901-7.93-12.248-15.529 3.528-40.935 59.552-309.749 62.841-311.468l27.097-16.08z" fill="url(#SVGID_14_)"/><path d="m462.97 347.713-32.013 18.993c-1.755 1.158-3.813 1.966-6.129 2.27-43.012 5.605-97.97-3.286-157.861-3.286-66.333 0-126.62 8.129-171.313 1.402-7.544-1.139-12.901-7.93-12.248-15.529 3.528-40.935 59.552-309.749 62.841-311.468l27.097-16.08z" fill="url(#SVGID_15_)"/><path d="m139.087 48.88c-38.66 132.841 31.321 164.264 27.791 205.195-.655 7.6-78.769 111.878-71.226 113.014 44.694 6.731 105.357 4.466 171.692 4.466 59.891 0 114.475 3.027 157.481-2.58 11.537-1.504 16.674-15.306 8.916-23.977l-269.988-301.752c-7.578-8.469-21.491-5.277-24.666 5.634z" fill="url(#SVGID_16_)"/><path d="m83.406 351.561c-.655 7.6 4.703 14.392 12.246 15.528 44.694 6.731 104.98 10.857 171.315 10.857 59.892 0 114.852-3.364 157.858-8.971 11.537-1.504 16.674-15.306 8.916-23.977l-70.907-79.249h-269.458c-5.557 39.067-8.56 69.462-9.97 85.812z" fill="url(#SVGID_17_)"/><g opacity=".6"><g><circle cx="178.958" cy="99.802" fill="url(#SVGID_18_)" r="7.746"/><circle cx="155.465" cy="107.29" fill="url(#SVGID_19_)" r="6.115"/><circle cx="173.789" cy="127.314" fill="url(#SVGID_20_)" r="3.686"/></g><g><circle cx="126.682" cy="316.081" fill="url(#SVGID_21_)" r="7.746"/><circle cx="128.078" cy="340.699" fill="url(#SVGID_22_)" r="6.115"/><circle cx="152.037" cy="327.945" fill="url(#SVGID_23_)" r="3.686"/></g><g><circle cx="208.335" cy="128.928" fill="url(#SVGID_24_)" r="5.723"/><circle cx="192.637" cy="119.679" fill="url(#SVGID_25_)" r="4.518"/><circle cx="190.637" cy="139.635" fill="url(#SVGID_26_)" r="2.724"/></g><g><circle cx="339.663" cy="332.183" fill="url(#SVGID_27_)" r="5.723"/><circle cx="323.965" cy="322.934" fill="url(#SVGID_28_)" r="4.518"/><circle cx="321.965" cy="342.891" fill="url(#SVGID_29_)" r="2.724"/></g></g><g fill="#ffeaa2"><path d="m377.971 211.314c-1.935.666-2.964 2.774-2.298 4.709s2.774 2.964 4.709 2.298 2.964-2.774 2.298-4.709-2.774-2.964-4.709-2.298z"/><path d="m387.878 218.53c.526 1.528 2.19 2.34 3.718 1.814s2.34-2.19 1.814-3.718-2.19-2.34-3.718-1.814c-1.527.526-2.339 2.19-1.814 3.718z"/><path d="m395.944 205.192c.317.921 1.32 1.411 2.241 1.094s1.411-1.32 1.094-2.241-1.32-1.411-2.241-1.094-1.411 1.32-1.094 2.241z"/><path d="m369.413 180.977c1.455 1.439 3.801 1.426 5.24-.029s1.426-3.801-.029-5.24-3.801-1.426-5.24.029-1.426 3.801.029 5.24z"/><path d="m331.629 161.852c1.149 1.136 3.001 1.126 4.137-.023s1.126-3.001-.023-4.137-3.001-1.126-4.137.023-1.125 3.001.023 4.137z"/><path d="m352.242 179.597c.693.685 1.809.679 2.494-.014s.679-1.809-.014-2.494-1.809-.679-2.494.014c-.684.692-.678 1.809.014 2.494z"/><path d="m384.05 200.97c1.306.761 2.983.32 3.744-.987.761-1.306.32-2.983-.987-3.744-1.306-.761-2.983-.32-3.744.987-.762 1.306-.32 2.982.987 3.744z"/><path d="m376.591 204.462c1.031.601 2.355.252 2.956-.779s.252-2.355-.779-2.956-2.355-.252-2.956.779c-.602 1.031-.253 2.355.779 2.956z"/><path d="m385.899 207.372c-.622-.362-1.42-.152-1.782.47s-.152 1.42.47 1.782 1.42.152 1.782-.47c.362-.621.151-1.419-.47-1.782z"/><path d="m303.128 143.905c-1.935.666-2.964 2.774-2.298 4.709s2.774 2.964 4.709 2.298 2.964-2.774 2.298-4.709c-.666-1.934-2.774-2.963-4.709-2.298z"/><path d="m337.993 175.589c.526 1.528 2.19 2.34 3.718 1.814s2.34-2.19 1.814-3.718-2.19-2.34-3.718-1.814c-1.527.526-2.34 2.19-1.814 3.718z"/><path d="m330.384 147.79c.317.921 1.32 1.411 2.241 1.094s1.411-1.32 1.094-2.241-1.32-1.411-2.241-1.094-1.411 1.321-1.094 2.241z"/><path d="m291.798 126.473c1.455 1.439 3.801 1.426 5.24-.029s1.426-3.801-.029-5.24-3.801-1.426-5.24.029-1.426 3.801.029 5.24z"/><path d="m288.72 130.366c-1.136 1.149-1.126 3.001.023 4.137s3.001 1.126 4.137-.023 1.126-3.001-.023-4.137-3.001-1.125-4.137.023z"/><path d="m294.582 140.687c.693.685 1.809.679 2.494-.014.685-.692.679-1.809-.014-2.494s-1.809-.679-2.494.014c-.684.693-.678 1.81.014 2.494z"/><path d="m323.732 132.897c1.306.761 2.983.32 3.744-.987.761-1.306.32-2.983-.987-3.744-1.306-.761-2.983-.32-3.744.987s-.319 2.983.987 3.744z"/><path d="m301.748 137.053c1.031.601 2.355.252 2.956-.779s.252-2.355-.779-2.956-2.355-.252-2.956.779c-.601 1.032-.253 2.355.779 2.956z"/><path d="m311.056 139.964c-.622-.362-1.42-.152-1.782.47s-.152 1.42.47 1.782 1.42.152 1.782-.47.152-1.42-.47-1.782z"/></g></g><path d="m139.087 48.88c-38.66 132.841-52.151 261.75-55.681 302.68-.655 7.6 4.703 14.392 12.246 15.528 44.694 6.731 104.98 10.857 171.315 10.857 59.891 0 114.852-3.364 157.858-8.971 11.537-1.504 16.674-15.306 8.916-23.977l-269.988-301.751c-7.578-8.469-21.491-5.277-24.666 5.634z" fill="url(#SVGID_30_)"/><g><path d="m418.89 461.088c7.955-4.131 10.619-15.132 4.058-22.464l-269.989-301.752c-5.124-5.727-13.141-6.115-18.779-2.397l-63.485 37.675c-3.289 1.717-5.97 4.713-7.156 8.785-38.66 132.841-52.151 261.75-55.681 302.68-.655 7.6 4.703 14.392 12.246 15.528 44.694 6.73 104.981 10.857 171.315 10.857 59.892 0 114.852-3.364 157.858-8.971 2.321-.303 4.378-1.109 6.128-2.266z" fill="url(#SVGID_31_)"/><path d="m422.948 438.624-46.862-52.375-57.557 57.557 36.798 55.003c.025-.016.054-.029.079-.046l63.484-37.674c7.956-4.131 10.619-15.132 4.058-22.465z" fill="url(#SVGID_32_)"/><path d="m104.402 166.213c-48.752 43.182 221.116 347.861 269.867 304.68 8.406-7.445 7.334-22.668-.439-42.539-2.824-7.218-4.027-15.118-3.343-23.218l.073-.869c1.485-17.612-7.539-33.214-23.111-39.955l-.012-.005c-13.303-5.758-21.993-18.059-23.182-32.816l-.113-1.404c-1.312-16.271-11.837-29.367-27.324-34l-1.183-.354c-14.224-4.255-24.353-15.688-26.862-30.321l-.21-1.226c-2.732-15.933-14.463-27.961-30.458-31.226l-1.673-.342c-14.424-2.945-25.491-13.051-29.473-26.914-4.668-16.249-18.97-27.108-36.556-27.756l-1.183-.044c-8.123-.299-15.82-2.447-22.644-6.121-18.788-10.113-33.769-13.015-42.174-5.57z" fill="url(#SVGID_33_)"/><path d="m373.833 428.356c-2.83-7.222-4.025-15.124-3.345-23.22l.073-.873c1.479-17.605-7.544-33.208-23.109-39.952h-.018c-13.296-5.761-21.988-18.065-23.183-32.822l-.11-1.397c-1.314-16.273-11.835-29.376-27.327-34.007l-1.176-.349c-14.224-4.254-24.359-15.694-26.868-30.323l-.211-1.222c-1.709-9.997-6.965-18.451-14.591-24.166 6.055 17.008 2.279 36.727-11.33 50.335l-49.513 49.513c69.321 80.741 155.599 153.649 181.15 131.017 8.397-7.442 7.331-22.668-.442-42.534z" fill="url(#SVGID_34_)"/><circle cx="145.619" cy="215.084" fill="url(#SVGID_35_)" r="43.933"/><circle cx="287.964" cy="366.06" fill="url(#SVGID_36_)" r="43.933"/><g><path d="m366.003 363.697c-18.836-18.836-49.376-18.836-68.212 0s-18.836 49.376 0 68.212 49.376 18.836 68.212 0 18.836-49.376 0-68.212zm-55.764 55.764c-11.96-11.96-11.96-31.356 0-43.316s31.352-11.955 43.311.005c11.96 11.96 11.965 31.352.005 43.311-11.96 11.96-31.356 11.96-43.316 0z" fill="url(#SVGID_37_)"/><path d="m303.527 426.173c15.666 15.666 41.074 15.666 56.74 0 15.671-15.671 15.666-41.074 0-56.74-15.671-15.671-41.069-15.671-56.74 0-15.666 15.666-15.671 41.069 0 56.74zm50.028-50.028c11.96 11.96 11.96 31.356 0 43.316s-31.352 11.955-43.311-.005-11.965-31.352-.005-43.311c11.96-11.96 31.356-11.96 43.316 0z" fill="url(#SVGID_38_)"/></g><g><path d="m242.639 222.145c-18.836-18.836-49.376-18.836-68.212 0s-18.836 49.376 0 68.212 49.376 18.836 68.212 0 18.836-49.376 0-68.212zm-55.764 55.764c-11.96-11.96-11.96-31.356 0-43.316s31.352-11.955 43.311.005c11.96 11.96 11.965 31.352.005 43.312-11.96 11.959-31.356 11.959-43.316-.001z" fill="url(#SVGID_39_)"/><path d="m180.163 284.621c15.666 15.666 41.074 15.666 56.74 0 15.671-15.671 15.666-41.074 0-56.74-15.671-15.671-41.069-15.671-56.74 0-15.666 15.666-15.671 41.069 0 56.74zm50.028-50.028c11.96 11.96 11.96 31.356 0 43.316s-31.352 11.955-43.311-.005c-11.96-11.96-11.965-31.352-.005-43.311 11.96-11.96 31.357-11.96 43.316 0z" fill="url(#SVGID_40_)"/></g><path d="m343.676 452.765 6.925-6.319c10.021-9.144 11.427-25.281 3.283-39.2-18.226-31.15-50.463-73.589-90.479-117.441s-79.335-79.829-108.69-100.823c-13.118-9.381-29.315-9.454-39.336-.309l-6.925 6.319c-4.968 4.533-3.267 13.568 3.41 17.903 30.031 19.495 73.685 58.526 118.213 107.323s79.411 95.832 96.083 127.518c3.706 7.044 12.548 9.562 17.516 5.029z" fill="url(#SVGID_41_)"/><g fill="#ffeaa2"><path d="m235.298 261.19c1.935-.666 2.964-2.774 2.298-4.709s-2.774-2.964-4.709-2.298-2.964 2.774-2.298 4.709c.665 1.935 2.774 2.964 4.709 2.298z"/><path d="m225.39 253.974c-.526-1.528-2.19-2.34-3.718-1.814s-2.34 2.19-1.814 3.718 2.19 2.34 3.718 1.814 2.34-2.19 1.814-3.718z"/><path d="m217.325 267.312c-.317-.921-1.32-1.411-2.241-1.094s-1.411 1.32-1.094 2.241 1.32 1.411 2.241 1.094c.921-.316 1.411-1.32 1.094-2.241z"/><path d="m243.855 291.527c-1.455-1.439-3.801-1.426-5.24.029s-1.426 3.801.029 5.24 3.801 1.426 5.24-.029c1.44-1.455 1.427-3.801-.029-5.24z"/><path d="m281.639 310.652c-1.149-1.136-3.001-1.126-4.137.023s-1.126 3.001.023 4.137 3.001 1.126 4.137-.023 1.126-3.001-.023-4.137z"/><path d="m261.026 292.908c-.693-.685-1.809-.679-2.494.014s-.679 1.809.014 2.494 1.809.679 2.494-.014.679-1.809-.014-2.494z"/><path d="m229.219 271.534c-1.306-.761-2.983-.32-3.744.987-.761 1.306-.32 2.983.987 3.744 1.306.761 2.983.32 3.744-.987.761-1.306.319-2.982-.987-3.744z"/><path d="m236.678 268.042c-1.031-.601-2.355-.252-2.956.779s-.252 2.355.779 2.956 2.355.252 2.956-.779.252-2.354-.779-2.956z"/><path d="m227.37 265.132c.622.362 1.42.152 1.782-.47s.152-1.42-.47-1.782-1.42-.152-1.782.47-.152 1.42.47 1.782z"/><path d="m310.14 328.599c1.935-.666 2.964-2.774 2.298-4.709s-2.774-2.964-4.709-2.298-2.964 2.774-2.298 4.709 2.774 2.964 4.709 2.298z"/><path d="m275.276 296.915c-.526-1.528-2.19-2.34-3.718-1.814s-2.34 2.19-1.814 3.718 2.19 2.34 3.718 1.814c1.527-.526 2.339-2.19 1.814-3.718z"/><path d="m282.885 324.714c-.317-.921-1.32-1.411-2.241-1.094s-1.411 1.32-1.094 2.241 1.32 1.411 2.241 1.094 1.411-1.32 1.094-2.241z"/><path d="m321.471 346.031c-1.455-1.439-3.801-1.426-5.24.029s-1.426 3.801.029 5.24 3.801 1.426 5.24-.029 1.426-3.801-.029-5.24z"/><path d="m324.548 342.138c1.136-1.149 1.126-3.001-.023-4.137s-3.001-1.126-4.137.023-1.126 3.001.023 4.137 3.001 1.126 4.137-.023z"/><path d="m318.686 331.817c-.693-.685-1.809-.679-2.494.014-.685.692-.679 1.809.014 2.494s1.809.679 2.494-.014.679-1.809-.014-2.494z"/><path d="m289.536 339.607c-1.306-.761-2.983-.32-3.744.987-.761 1.306-.32 2.983.987 3.744 1.306.761 2.983.32 3.744-.987.761-1.306.32-2.983-.987-3.744z"/><path d="m311.521 335.451c-1.031-.601-2.355-.252-2.956.779s-.252 2.355.779 2.956 2.355.252 2.956-.779.252-2.355-.779-2.956z"/><path d="m302.213 332.541c.622.362 1.42.152 1.782-.47s.152-1.42-.47-1.782-1.42-.152-1.782.47c-.363.621-.152 1.419.47 1.782z"/></g><path d="m151.015 240.815c11.803 22.064 29.877 40.138 51.941 51.941 3.677 1.967 8.123-.697 8.123-4.867v-40.278c0-8.24-6.68-14.92-14.92-14.92h-40.278c-4.169.001-6.833 4.447-4.866 8.124z" fill="url(#SVGID_42_)"/><path d="m96.376 176.712c-24.895 22.051 244.972 326.73 269.868 304.679 4.292-3.802-.183-16.01-10.651-33.494-3.803-6.351-6.594-12.844-8.066-19.035l-.158-.664c-3.2-13.462-13.539-27.9-26.478-36.972l-.01-.007c-11.053-7.75-20.348-19.516-24.796-31.387l-.423-1.129c-4.904-13.089-15.724-25.924-28.089-33.322l-.945-.565c-11.357-6.794-21.486-18.228-26.86-30.322l-.45-1.013c-5.852-13.169-17.288-25.458-29.69-31.906l-1.297-.675c-11.184-5.815-21.671-16.435-27.929-28.283-7.334-13.887-20.353-25.884-33.273-30.664l-.869-.322c-5.968-2.208-12.076-5.763-17.921-10.304-16.093-12.501-27.671-18.417-31.963-14.615z" fill="url(#SVGID_43_)"/><path d="m387.423 479.767-32.013 18.993c-1.755 1.158-3.813 1.966-6.129 2.27-43.012 5.605-97.969 8.968-157.861 8.968-66.333 0-126.62-4.126-171.313-10.852-7.544-1.139-12.901-7.93-12.248-15.529 3.528-40.935 17.027-169.843 55.683-302.683 1.185-4.071 3.868-7.066 7.158-8.784l27.097-16.08z" fill="url(#SVGID_44_)"/><path d="m387.423 479.767-32.013 18.993c-1.755 1.158-3.813 1.966-6.129 2.27-43.012 5.605-97.969 8.968-157.861 8.968-66.333 0-126.62-4.126-171.313-10.852-7.544-1.139-12.901-7.93-12.248-15.529 3.528-40.935 20.027-165.843 58.683-298.683 1.185-4.071 3.868-7.066 7.158-8.784l24.097-20.08z" fill="url(#SVGID_45_)"/><path d="m63.54 180.934c-38.66 132.841-52.151 261.75-55.681 302.68-.655 7.6 4.703 14.392 12.246 15.528 44.693 6.731 104.98 10.858 171.314 10.858 59.891 0 114.852-3.364 157.858-8.971 11.537-1.504 16.674-15.306 8.916-23.977l-269.988-301.752c-7.577-8.469-21.49-5.277-24.665 5.634z" fill="url(#SVGID_46_)"/><path d="m7.859 483.614c-.655 7.6 4.703 14.392 12.246 15.528 44.693 6.731 104.98 10.858 171.314 10.858 59.892 0 114.852-3.364 157.858-8.971 11.537-1.504 16.674-15.306 8.916-23.977l-70.907-79.249-264.616.494c-5.558 39.067-13.401 68.968-14.811 85.317z" fill="url(#SVGID_47_)"/><g opacity=".6"><g><circle cx="103.411" cy="231.856" fill="url(#SVGID_48_)" r="7.746"/><circle cx="79.918" cy="239.344" fill="url(#SVGID_49_)" r="6.115"/><circle cx="98.241" cy="259.368" fill="url(#SVGID_50_)" r="3.686"/></g><g><circle cx="51.135" cy="448.135" fill="url(#SVGID_51_)" r="7.746"/><circle cx="52.53" cy="472.753" fill="url(#SVGID_52_)" r="6.115"/><circle cx="76.49" cy="459.999" fill="url(#SVGID_53_)" r="3.686"/></g><g><circle cx="132.788" cy="260.981" fill="url(#SVGID_54_)" r="5.723"/><circle cx="117.089" cy="251.732" fill="url(#SVGID_55_)" r="4.518"/><circle cx="115.089" cy="271.689" fill="url(#SVGID_56_)" r="2.724"/></g><g><circle cx="264.116" cy="464.237" fill="url(#SVGID_57_)" r="5.723"/><circle cx="248.418" cy="454.988" fill="url(#SVGID_58_)" r="4.518"/><circle cx="246.417" cy="474.944" fill="url(#SVGID_59_)" r="2.724"/></g></g></g></g></svg>