<svg width="20" height="16" viewBox="0 0 20 16" fill="none" xmlns="http://www.w3.org/2000/svg">
<path d="M20 1.89584C19.2498 2.22182 18.456 2.43658 17.6438 2.53334C18.4974 2.0335 19.1393 1.23941 19.4492 0.300007C18.6421 0.77192 17.7606 1.10304 16.8425 1.27917C16.4559 0.873978 15.9909 0.551634 15.4758 0.331734C14.9607 0.111834 14.4063 -0.00102805 13.8463 7.05601e-06C11.5788 7.05601e-06 9.74375 1.80834 9.74375 4.03751C9.74214 4.34758 9.77767 4.65672 9.84958 4.95834C8.22362 4.88212 6.63147 4.46733 5.17499 3.74053C3.71852 3.01373 2.42979 1.99091 1.39125 0.737507C1.02691 1.35172 0.834222 2.05253 0.833333 2.76667C0.833333 4.16667 1.56375 5.40417 2.66667 6.12917C2.01322 6.11367 1.37316 5.94072 0.800833 5.62501V5.67501C0.800833 7.63334 2.2175 9.26251 4.0925 9.63334C3.73991 9.72733 3.37657 9.77496 3.01167 9.77501C2.75274 9.77546 2.4944 9.75034 2.24042 9.70001C2.76167 11.3042 4.27875 12.4708 6.07583 12.5042C4.61557 13.6296 2.82276 14.2378 0.979167 14.2333C0.651924 14.2329 0.324986 14.2134 0 14.175C1.87549 15.3726 4.0556 16.0061 6.28083 16C13.8375 16 17.9658 9.84584 17.9658 4.50834C17.9658 4.33334 17.9613 4.15834 17.9529 3.98751C18.7542 3.41753 19.4474 2.70922 20 1.89584Z" fill="#323232"/>
</svg>
