<svg width="20" height="16" viewBox="0 0 20 16" fill="none" xmlns="http://www.w3.org/2000/svg">
<path d="M19.8715 3.31253C19.8715 1.55449 18.5784 0.140252 16.9805 0.140252C14.8162 0.0390673 12.6089 0 10.3531 0H9.64989C7.39961 0 5.18839 0.0390674 3.02406 0.140643C1.43011 0.140643 0.136974 1.5627 0.136974 3.32073C0.039305 4.71114 -0.00210647 6.10194 0.000237572 7.49274C-0.00366917 8.88354 0.0406073 10.2756 0.133067 11.6691C0.133067 13.4271 1.4262 14.853 3.02015 14.853C5.29387 14.9585 7.6262 15.0054 9.99759 15.0015C12.3729 15.0093 14.6987 14.9598 16.975 14.853C18.5729 14.853 19.866 13.4271 19.866 11.6691C19.9598 10.2743 20.0028 8.88354 19.9989 7.48884C20.0077 6.09803 19.9653 4.70593 19.8715 3.31253ZM8.0872 11.3253V3.64851L13.752 7.48493L8.0872 11.3253Z" fill="#323232"/>
</svg>
